
EXCLUSIVE DHAMAKA FROM Henry


Format : Matroska
File size : 397 MiB
Duration : 2h 22mn
Overall bit rate : 391 Kbps
Movie name : Rakht Charitra 2 DvDScr x264 - Henry Kharay
Encoded date : UTC 2010-12-19 13:03:29
Writing application : mkvmerge v4.2.0 ('No Talking') built on Jul 28 2010 18:38:23
Writing library : libebml v1.0.0 + libmatroska v1.0.0 
===================================================================================
Video
ID : 1
Format : AVC
Format/Info : Advanced Video Codec
Format profile : High@L2.1
Format settings, CABAC : Yes
Format settings, ReFrames : 4 frames
Muxing mode : Container profile=Unknown@2.1
Codec ID : V_MPEG4/ISO/AVC
Duration : 2h 22mn
Bit rate : 292 Kbps
Width : 624 pixels
Height : 272 pixels
Display aspect ratio : 2.25:1
Frame rate : 23.976 fps
Color space : YUV
Chroma subsampling : 4:2:0
Bit depth : 8 bits
Scan type : Progressive
Bits/(Pixel*Frame) : 0.072
Stream size : 290 MiB (73%)
Writing library : x264 
===================================================================================
Audio
ID : 2
Format : MPEG Audio
Format version : Version 2
Format profile : Layer 3
Mode : Joint stereo
Mode extension : MS Stereo
Codec ID : A_MPEG/L3
Codec ID/Hint : MP3
Duration : 2h 22mn
Bit rate mode : Variable
Bit rate : 97.3 Kbps
Nominal bit rate : 128 Kbps
Channel(s) : 2 channels
Sampling rate : 24.0 KHz
Stream size : 98.8 MiB (25%)
Writing library : LAME3.98r
Encoding settings : -m j -V 4 -q 2 -lowpass 12 --abr 128 
 
http://bapugunda.com/images.php?i=4801_6.png 
http://bapugunda.com/images.php?i=4802_7.png 
http://bapugunda.com/images.php?i=4798_3.png 
http://bapugunda.com/images.php?i=4803_8.png

Sample Include In Torrent

keep Seeing
Thnx

